<?xml version="1.0" encoding="UTF-8" standalone="no"?>
<svg
   xmlns:dc="http://purl.org/dc/elements/1.1/"
   xmlns:cc="http://creativecommons.org/ns#"
   xmlns:rdf="http://www.w3.org/1999/02/22-rdf-syntax-ns#"
   xmlns:svg="http://www.w3.org/2000/svg"
   xmlns="http://www.w3.org/2000/svg"
   xmlns:xlink="http://www.w3.org/1999/xlink"
   version="1.1"
   viewBox="0 0 1650 485"
   data-name="Layer 1"
   id="Layer_1">
  <metadata
     id="metadata75">
    <rdf:RDF>
      <cc:Work
         rdf:about="">
        <dc:format>image/svg+xml</dc:format>
        <dc:type
           rdf:resource="http://purl.org/dc/dcmitype/StillImage" />
      </cc:Work>
    </rdf:RDF>
  </metadata>
  <defs
     id="defs20">
    <style
       id="style2">.cls-1{fill:#8a9eac;}.cls-2{fill:url(#New_Gradient_Swatch_2);}.cls-3{fill:url(#New_Gradient_Swatch_2-2);}</style>
    <linearGradient
       gradientUnits="userSpaceOnUse"
       x2="297.978"
       y1="382.268"
       x1="297.978"
       id="New_Gradient_Swatch_2">
      <stop
         id="stop4"
         stop-color="#20396e"
         offset="0" />
      <stop
         id="stop6"
         stop-color="#1e5482"
         offset="0.111" />
      <stop
         id="stop8"
         stop-color="#1b799e"
         offset="0.292" />
      <stop
         id="stop10"
         stop-color="#1896b4"
         offset="0.474" />
      <stop
         id="stop12"
         stop-color="#16aac3"
         offset="0.653" />
      <stop
         id="stop14"
         stop-color="#15b7cd"
         offset="0.83" />
      <stop
         id="stop16"
         stop-color="#15bbd0"
         offset="1" />
    </linearGradient>
    <linearGradient
       xlink:href="#New_Gradient_Swatch_2"
       y2="128.368"
       x2="92.448"
       y1="368.116"
       x1="92.448"
       id="New_Gradient_Swatch_2-2" />
  </defs>
  <title
     id="title22">VimlyLogo® Hori RGB</title>
  <path
     id="path24"
     d="M1593.379,152.967v-.156a28.311,28.311,0,0,1,56.621-.156v.156a28.311,28.311,0,0,1-56.621.156Zm54.275-.156v-.156a25.965,25.965,0,1,0-51.93.156v.156a25.965,25.965,0,1,0,51.93-.156ZM1610.818,137.7h12.827c3.519,0,6.57,1.1,8.367,2.9a7.554,7.554,0,0,1,2.191,5.322v.157c0,4.618-3.207,7.357-7.822,8.219l9.542,12.054h-4.379l-9.073-11.506h-8.289v11.506h-3.364Zm12.279,14.011c4.3,0,7.586-1.877,7.586-5.478v-.157c0-3.132-2.737-5.167-7.195-5.167h-9.306v10.8Z"
     class="cls-1" />
  <path
     id="path26"
     d="M453.121,124.477H501.2q7.779,0,12.726,3.536a19.414,19.414,0,0,1,7.066,9.38L570.855,275.4q3.36,9.026,6.809,19.634t6.45,22.3q2.469-11.668,5.742-22.3,3.279-10.608,6.468-19.634l49.5-138.009a20.452,20.452,0,0,1,19.451-12.916h48.435L610.457,382.269h-54.1Z"
     class="cls-1" />
  <rect
     id="rect28"
     height="257.792"
     width="60.101"
     y="124.476"
     x="750.828"
     class="cls-1" />
  <path
     id="path30"
     d="M1007.79,278.4q3.26,7.245,6.281,14.881c1.989-5.214,4.109-10.243,6.36-15.157q3.342-7.346,6.881-14.265l66.119-130.349a21.453,21.453,0,0,1,3.641-5.226,11.454,11.454,0,0,1,4.15-2.739,14.251,14.251,0,0,1,5.222-.887h52.411V382.269h-52.674V234c0-7.186.341-14.984,1.048-23.35L1038.99,343.174a22.576,22.576,0,0,1-8.57,9.38,23.719,23.719,0,0,1-12.288,3.183h-8.145a23.69,23.69,0,0,1-12.276-3.183,22.68,22.68,0,0,1-8.582-9.38l-68.58-132.692c.473,4.111.814,8.223,1.048,12.28.234,4.076.365,7.822.365,11.238V382.269H869.276V124.663h52.411a14.3,14.3,0,0,1,5.222.887,11.712,11.712,0,0,1,4.15,2.739,21.418,21.418,0,0,1,3.623,5.226l66.3,130.889q3.53,6.733,6.8,14"
     class="cls-1" />
  <polygon
     id="polygon32"
     points="1271.644 334.503 1367.119 334.503 1367.119 382.27 1211.885 382.27 1211.885 124.478 1271.644 124.478 1271.644 334.503"
     class="cls-1" />
  <path
     id="path34"
     d="M1491.917,284.246v98.027h-59.741V284.246l-93.355-159.77h52.693q7.77,0,12.378,3.631a27.244,27.244,0,0,1,7.42,9.284l36.421,75.025q4.4,9.017,8.127,16.637,3.71,7.6,6.533,15.032a143.282,143.282,0,0,1,6.372-15.217q3.711-7.606,7.959-16.452l36.057-75.025a22.581,22.581,0,0,1,2.928-4.6,25.122,25.122,0,0,1,4.24-4.153,20.261,20.261,0,0,1,5.474-3.009,19.569,19.569,0,0,1,6.8-1.156h53.04Z"
     class="cls-1" />
  <path
     id="path36"
     d="M564.129,457.911V478.1h12.528a19.153,19.153,0,0,0,5.755-.773,10.659,10.659,0,0,0,3.964-2.164,8.456,8.456,0,0,0,2.282-3.314,12.016,12.016,0,0,0,.73-4.225,8.72,8.72,0,0,0-3.168-7.1c-2.12-1.744-5.312-2.607-9.605-2.607Zm0-5.58h10.342a20.039,20.039,0,0,0,5.743-.732,11.6,11.6,0,0,0,4.018-2.019,7.727,7.727,0,0,0,2.354-3.129,10.1,10.1,0,0,0,.784-4.021c0-3.405-1.03-5.892-3.084-7.492s-5.21-2.385-9.528-2.385H564.129Zm-7.839,31.986V426.374h18.468a35.726,35.726,0,0,1,9.187,1.042,18.087,18.087,0,0,1,6.347,3,11.616,11.616,0,0,1,3.678,4.741,16.073,16.073,0,0,1,1.191,6.341,12.779,12.779,0,0,1-.67,4.111,11.856,11.856,0,0,1-2.013,3.68,14.119,14.119,0,0,1-3.407,3.039,19.064,19.064,0,0,1-4.785,2.187c4.24.827,7.432,2.362,9.576,4.573a11.924,11.924,0,0,1,3.245,8.721,16.23,16.23,0,0,1-1.359,6.718,14.419,14.419,0,0,1-3.952,5.214,18.724,18.724,0,0,1-6.39,3.381,28.6,28.6,0,0,1-8.636,1.192Z"
     class="cls-1" />
  <polygon
     id="polygon38"
     points="654.039 426.372 654.039 432.767 626.228 432.767 626.228 452.005 648.739 452.005 648.739 458.16 626.228 458.16 626.228 477.926 654.039 477.926 654.039 484.316 618.347 484.316 618.347 426.372 654.039 426.372"
     class="cls-1" />
  <path
     id="path40"
     d="M680.685,426.634a3.969,3.969,0,0,1,1.15,1.072l33.529,43.668c-.078-.689-.132-1.372-.156-2.038s-.036-1.3-.036-1.918V426.37h6.869v57.95h-3.964a3.3,3.3,0,0,1-1.557-.33,3.864,3.864,0,0,1-1.234-1.085L681.78,439.274c.066.665.108,1.336.132,1.978s.042,1.246.042,1.78V484.32h-6.875V426.37h4.049a3.662,3.662,0,0,1,1.557.264"
     class="cls-1" />
  <polygon
     id="polygon42"
     points="781.64 426.372 781.64 432.767 753.83 432.767 753.83 452.005 776.341 452.005 776.341 458.16 753.83 458.16 753.83 477.926 781.64 477.926 781.64 484.316 745.949 484.316 745.949 426.372 781.64 426.372"
     class="cls-1" />
  <polygon
     id="polygon44"
     points="838.36 426.372 838.36 432.767 810.561 432.767 810.561 453.012 834.318 453.012 834.318 459.407 810.561 459.407 810.561 484.316 802.687 484.316 802.687 426.372 838.36 426.372"
     class="cls-1" />
  <rect
     id="rect46"
     height="57.944"
     width="7.839"
     y="426.373"
     x="859.658"
     class="cls-1" />
  <polygon
     id="polygon48"
     points="932.223 426.372 932.223 432.958 913.509 432.958 913.509 484.316 905.67 484.316 905.67 432.958 886.89 432.958 886.89 426.372 932.223 426.372"
     class="cls-1" />
  <path
     id="path50"
     d="M1005.277,435.422a3.214,3.214,0,0,1-.785.917,1.686,1.686,0,0,1-1.048.3,2.807,2.807,0,0,1-1.593-.677,22.775,22.775,0,0,0-2.3-1.522,17.99,17.99,0,0,0-3.354-1.517,14.29,14.29,0,0,0-4.737-.683,14.14,14.14,0,0,0-4.659.707,10.16,10.16,0,0,0-3.377,1.912,8.432,8.432,0,0,0-2.043,2.853,9.306,9.306,0,0,0-.676,3.542,6.407,6.407,0,0,0,1.2,4.015,10.036,10.036,0,0,0,3.138,2.74,24.528,24.528,0,0,0,4.449,1.953c1.653.563,3.353,1.127,5.078,1.726,1.755.593,3.444,1.259,5.1,2a18.009,18.009,0,0,1,4.455,2.811,12.721,12.721,0,0,1,3.138,4.165,13.836,13.836,0,0,1,1.191,6.066,19.553,19.553,0,0,1-1.293,7.138,16.557,16.557,0,0,1-3.773,5.8,17.514,17.514,0,0,1-6.1,3.878,22.355,22.355,0,0,1-8.222,1.415,25.072,25.072,0,0,1-10.258-2.044,23.967,23.967,0,0,1-7.894-5.514l2.264-3.716a2.657,2.657,0,0,1,.785-.749,1.816,1.816,0,0,1,1.036-.3,3.214,3.214,0,0,1,1.94.905,30.316,30.316,0,0,0,2.731,2,20.223,20.223,0,0,0,3.952,2,15.641,15.641,0,0,0,5.683.906,14.893,14.893,0,0,0,4.971-.762,10.621,10.621,0,0,0,3.695-2.157,9.76,9.76,0,0,0,2.329-3.339,11.539,11.539,0,0,0,.809-4.339,7.23,7.23,0,0,0-1.2-4.3,9.778,9.778,0,0,0-3.126-2.817,22.676,22.676,0,0,0-4.425-1.924c-1.665-.521-3.366-1.06-5.091-1.612a48.357,48.357,0,0,1-5.09-1.924,16.013,16.013,0,0,1-4.426-2.828,12.735,12.735,0,0,1-3.125-4.352,16.511,16.511,0,0,1,0-12.388,14.974,14.974,0,0,1,3.455-5.094,16.773,16.773,0,0,1,5.587-3.56,20.427,20.427,0,0,1,7.654-1.337,24.484,24.484,0,0,1,8.851,1.547,20.245,20.245,0,0,1,6.988,4.434Z"
     class="cls-1" />
  <path
     id="path52"
     d="M1073.958,455.357a29.478,29.478,0,0,0-1.467-9.577,20.156,20.156,0,0,0-4.108-7.174,17.95,17.95,0,0,0-6.462-4.507,23.451,23.451,0,0,0-16.935,0,18.1,18.1,0,0,0-6.491,4.507,20.2,20.2,0,0,0-4.139,7.174,32.249,32.249,0,0,0,0,19.155,20.245,20.245,0,0,0,4.139,7.15,17.912,17.912,0,0,0,6.491,4.489,23.789,23.789,0,0,0,16.935,0,17.761,17.761,0,0,0,6.462-4.489,20.2,20.2,0,0,0,4.108-7.15,29.351,29.351,0,0,0,1.467-9.578m8.037,0a33.273,33.273,0,0,1-2.066,11.957,26.95,26.95,0,0,1-5.815,9.356,25.983,25.983,0,0,1-9.031,6.089,32.512,32.512,0,0,1-23.3,0,25.825,25.825,0,0,1-9-6.089,27.138,27.138,0,0,1-5.826-9.356,35.776,35.776,0,0,1,0-23.9,27.518,27.518,0,0,1,5.826-9.38,26.009,26.009,0,0,1,9-6.131,32.1,32.1,0,0,1,23.3,0,26.168,26.168,0,0,1,9.031,6.131,27.326,27.326,0,0,1,5.815,9.38,33.271,33.271,0,0,1,2.066,11.944"
     class="cls-1" />
  <polygon
     id="polygon54"
     points="1110.316 477.729 1135.366 477.729 1135.366 484.316 1102.477 484.316 1102.477 426.372 1110.316 426.372 1110.316 477.729"
     class="cls-1" />
  <path
     id="path56"
     d="M1176.3,478.1a16.1,16.1,0,0,0,6.413-1.217,13.554,13.554,0,0,0,4.791-3.392,15.06,15.06,0,0,0,2.994-5.227,20.385,20.385,0,0,0,1.036-6.67V426.373h7.8V461.59a26.523,26.523,0,0,1-1.593,9.3,21.876,21.876,0,0,1-4.569,7.425,20.9,20.9,0,0,1-7.264,4.915,27.01,27.01,0,0,1-19.223,0,21.184,21.184,0,0,1-7.264-4.915,21.4,21.4,0,0,1-4.593-7.425,26.525,26.525,0,0,1-1.6-9.3V426.373h7.8v35.181a20.51,20.51,0,0,0,1.03,6.664,14.8,14.8,0,0,0,2.988,5.227,13.378,13.378,0,0,0,4.815,3.4,15.877,15.877,0,0,0,6.438,1.247"
     class="cls-1" />
  <polygon
     id="polygon58"
     points="1262 426.372 1262 432.958 1243.285 432.958 1243.285 484.316 1235.458 484.316 1235.458 432.958 1216.666 432.958 1216.666 426.372 1262 426.372"
     class="cls-1" />
  <rect
     id="rect60"
     height="57.944"
     width="7.839"
     y="426.373"
     x="1281.469"
     class="cls-1" />
  <path
     id="path62"
     d="M1360.336,455.357a29.66,29.66,0,0,0-1.437-9.577,20.3,20.3,0,0,0-4.138-7.174,17.8,17.8,0,0,0-6.462-4.507,23.422,23.422,0,0,0-16.924,0,17.972,17.972,0,0,0-6.479,4.507,19.966,19.966,0,0,0-4.15,7.174,32.377,32.377,0,0,0,0,19.155,20.013,20.013,0,0,0,4.15,7.15,17.782,17.782,0,0,0,6.479,4.489,23.759,23.759,0,0,0,16.924,0,17.61,17.61,0,0,0,6.462-4.489,20.35,20.35,0,0,0,4.138-7.15,29.533,29.533,0,0,0,1.437-9.578m8.049,0a33.8,33.8,0,0,1-2.054,11.957,27.519,27.519,0,0,1-5.827,9.356,25.757,25.757,0,0,1-9.025,6.089,32.528,32.528,0,0,1-23.3,0,26.078,26.078,0,0,1-9.013-6.089,27.281,27.281,0,0,1-5.809-9.356,35.5,35.5,0,0,1,0-23.9,27.665,27.665,0,0,1,5.809-9.38,26.265,26.265,0,0,1,9.013-6.131,32.112,32.112,0,0,1,23.3,0,25.939,25.939,0,0,1,9.025,6.131,27.909,27.909,0,0,1,5.827,9.38,33.8,33.8,0,0,1,2.054,11.944"
     class="cls-1" />
  <path
     id="path64"
     d="M1394.469,426.634a3.956,3.956,0,0,1,1.149,1.072l33.53,43.668c-.078-.689-.126-1.372-.156-2.038s-.036-1.3-.036-1.918V426.37h6.869v57.95h-3.964a3.3,3.3,0,0,1-1.557-.33,3.864,3.864,0,0,1-1.234-1.085l-33.5-43.631c.059.665.1,1.336.125,1.978s.042,1.246.042,1.78V484.32h-6.869V426.37h4.043a3.662,3.662,0,0,1,1.557.264"
     class="cls-1" />
  <path
     id="path66"
     d="M1489.4,435.422a3.2,3.2,0,0,1-.785.917,1.688,1.688,0,0,1-1.048.3,2.807,2.807,0,0,1-1.593-.677,22.8,22.8,0,0,0-2.306-1.522,18.008,18.008,0,0,0-3.353-1.517,14.3,14.3,0,0,0-4.737-.683,14.132,14.132,0,0,0-4.659.707,10.085,10.085,0,0,0-3.372,1.912,8.255,8.255,0,0,0-2.042,2.853,9.214,9.214,0,0,0-.682,3.542,6.413,6.413,0,0,0,1.2,4.015,10.059,10.059,0,0,0,3.138,2.74,24.45,24.45,0,0,0,4.456,1.953c1.647.563,3.347,1.127,5.072,1.726,1.754.593,3.444,1.259,5.108,2a18.071,18.071,0,0,1,4.45,2.811,12.721,12.721,0,0,1,3.138,4.165,13.751,13.751,0,0,1,1.191,6.066,19.553,19.553,0,0,1-1.293,7.138,16.474,16.474,0,0,1-3.773,5.8,17.523,17.523,0,0,1-6.1,3.878,22.348,22.348,0,0,1-8.216,1.415,25.085,25.085,0,0,1-10.265-2.044,23.974,23.974,0,0,1-7.893-5.514l2.264-3.716a2.607,2.607,0,0,1,.791-.749,1.782,1.782,0,0,1,1.03-.3,3.214,3.214,0,0,1,1.94.905,29.653,29.653,0,0,0,2.737,2,19.992,19.992,0,0,0,3.946,2,15.637,15.637,0,0,0,5.683.906,14.868,14.868,0,0,0,4.971-.762,10.607,10.607,0,0,0,3.694-2.157,9.749,9.749,0,0,0,2.33-3.339,11.539,11.539,0,0,0,.809-4.339,7.237,7.237,0,0,0-1.2-4.3,9.778,9.778,0,0,0-3.126-2.817,22.659,22.659,0,0,0-4.426-1.924c-1.658-.521-3.365-1.06-5.09-1.612a48.273,48.273,0,0,1-5.09-1.924,15.993,15.993,0,0,1-4.425-2.828,12.74,12.74,0,0,1-3.127-4.352,16.524,16.524,0,0,1,0-12.388,14.991,14.991,0,0,1,3.456-5.094,16.773,16.773,0,0,1,5.587-3.56,20.425,20.425,0,0,1,7.653-1.337,24.48,24.48,0,0,1,8.851,1.547,20.24,20.24,0,0,1,6.989,4.434Z"
     class="cls-1" />
  <path
     id="path68"
     d="M405.8.405c-46.123,0-64.33,27.941-86.582,81.8L243.561,277.387c-16.588,41.71-34.39,72.89-52.191,89.088-14.97,13.768-39.65,17.008-63.521,7.289,11.733,5.669,25.085,8.1,53.406,8.5h58.26c48.956,0,65.139-27.536,89.01-88.683L404.587,97.592C424.816,46.569,442.214,10.529,468.107,0Z"
     class="cls-2" />
  <path
     id="path70"
     d="M93.055,344.608c-9.71-10.123-17.8-23.082-25.489-42.924L0,128.368H91.437l79.3,202.067a147.709,147.709,0,0,0,14.16,27.536h0c-7.282,6.884-17.8,10.124-29.534,10.124C132.3,368.5,110.857,363.236,93.055,344.608Z"
     class="cls-3" />
</svg>
